PathFileType	4	(X/Y/Z)	c:\Git\powerlifing_model_clean\simulations\HC835B\Session1\HC835B_OGW_0002\marker_experimental.trc
DataRate	CameraRate	NumFrames	NumMarkers	Units	OrigDataRate	OrigDataStartFrame	OrigNumFrames
240.000000	240.000000	4	38	mm	240.000000	163	436
Frame#	Time	RPSI			LPSI			RASI			LASI			RTH1			RTH2			RTH3			RTH4			RSK1			RSK2			RSK3			RSK4			RCAL1			RCAL2			RCAL3			RST			RPT			RTN			RFMB			RSMB			RVMB			RFMH			RSMH			RVMH			RPM			LTH1			LTH2			LTH3			LTH4			LSK1			LSK2			LSK3			LSK4			LCAL1			LCAL2			LCAL3			LFMH			LVMH			
		X1	Y1	Z1	X2	Y2	Z2	X3	Y3	Z3	X4	Y4	Z4	X5	Y5	Z5	X6	Y6	Z6	X7	Y7	Z7	X8	Y8	Z8	X9	Y9	Z9	X10	Y10	Z10	X11	Y11	Z11	X12	Y12	Z12	X13	Y13	Z13	X14	Y14	Z14	X15	Y15	Z15	X16	Y16	Z16	X17	Y17	Z17	X18	Y18	Z18	X19	Y19	Z19	X20	Y20	Z20	X21	Y21	Z21	X22	Y22	Z22	X23	Y23	Z23	X24	Y24	Z24	X25	Y25	Z25	X26	Y26	Z26	X27	Y27	Z27	X28	Y28	Z28	X29	Y29	Z29	X30	Y30	Z30	X31	Y31	Z31	X32	Y32	Z32	X33	Y33	Z33	X34	Y34	Z34	X35	Y35	Z35	X36	Y36	Z36	X37	Y37	Z37	X38	Y38	Z38	

164	0.6791666666666667	463.9080200195314	1089.399291992188	-1383.751586914063	572.2702026367189	1085.06982421875	-1375.714965820313	379.6398620605469	1042.259399414063	-1184.107299804688	620.4237670898439	1043.975830078125	-1158.623046875	314.6994018554688	778.8029785156252	-1313.0029296875	317.9744873046876	757.8732910156251	-1255.890747070313	317.9899291992188	695.0728759765626	-1302.643798828125	332.6351013183594	673.9529418945314	-1249.95849609375	383.7442932128907	367.5363159179688	-1592.13427734375	368.6877136230469	316.4568786621094	-1560.683715820313	387.6935424804689	315.1069946289063	-1619.169311523438	384.4240112304689	265.4801940917969	-1585.629638671875	458.1937561035157	250.2531738281251	-1742.383911132813	498.4437255859376	225.8688049316407	-1757.386108398438	437.0908508300782	222.1473083496094	-1775.79052734375	500.4790344238282	182.341781616211	-1699.659790039063	405.9622802734376	178.8373260498047	-1739.796630859375	474.7878417968751	149.2987365722657	-1658.222534179688	475.0802612304689	113.5772323608399	-1654.649658203125	421.536346435547	112.5744094848633	-1644.00341796875	400.2244262695314	125.5745849609375	-1737.136596679688	488.2943725585939	57.02723693847658	-1649.317993164063	429.2109680175782	52.2666358947754	-1636.631103515625	382.4107971191407	59.3739356994629	-1702.364135742188	440.234832763672	27.37098121643067	-1602.817138671875	686.7918701171876	775.012878417969	-1152.563720703125	683.7573852539064	787.8027343750002	-1092.588256835938	674.4194335937501	707.0362548828126	-1101.6240234375	653.8470458984376	721.3558959960939	-1045.762329101563	626.6118164062501	271.0984802246094	-1043.03076171875	623.9805297851564	263.1501770019532	-990.0003051757815	619.3057250976564	221.0488281250001	-1017.772521972656	600.5166625976564	216.2733764648438	-963.8274536132815	553.9907226562501	83.96154785156251	-1059.18994140625	584.1897583007814	46.74650192260743	-1055.507568359375	525.7504272460939	44.80954360961915	-1053.313720703125	515.3491821289064	67.60675048828126	-832.570739746094	621.6569824218751	38.65443420410157	-864.6382446289065	
165	0.6833333333333333	463.9920349121095	1089.373779296875	-1376.502685546875	572.5292968750001	1085.860473632813	-1368.38671875	380.4330139160157	1042.427001953125	-1176.755737304688	620.8787231445314	1044.654296875	-1151.142944335938	314.1520996093751	777.873229980469	-1303.0966796875	317.1148986816407	757.6533203125001	-1245.82177734375	316.8274230957032	694.3585205078126	-1291.479125976563	331.0973815917969	673.7327880859376	-1238.535400390625	382.1672973632813	370.3089294433594	-1580.337890625	367.1327514648438	318.4526977539063	-1549.823974609375	385.9580993652345	318.3514404296876	-1608.280639648438	382.9846191406251	267.9900207519532	-1575.610961914063	456.2341308593751	257.0191040039063	-1731.141235351563	496.3528137207032	233.4131164550782	-1747.136962890625	435.3572082519532	230.0754547119141	-1765.74951171875	499.2041320800782	187.7579650878907	-1690.847045898438	404.474334716797	185.2123260498047	-1731.316162109375	473.607879638672	153.1036529541016	-1650.943115234375	473.9685058593751	117.1931610107422	-1648.46142578125	420.4803161621095	115.7074813842774	-1637.886840820313	399.1361389160157	131.6967926025391	-1730.6025390625	487.287811279297	60.25876998901369	-1645.449340820313	428.412078857422	53.94623947143556	-1633.128295898438	381.7796630859376	64.16003417968751	-1698.217529296875	439.7882080078126	26.66424369812012	-1600.848999023438	687.5067749023439	776.393737792969	-1144.366943359375	684.4890747070314	789.3427734375002	-1084.411743164063	675.0624389648439	708.5462036132814	-1093.353515625	654.6174316406251	722.8247070312501	-1037.505126953125	626.8023071289064	271.6684570312501	-1039.513793945313	623.4185791015626	262.9654541015626	-986.6733398437502	619.0048217773439	221.3551177978516	-1015.013488769531	599.7398681640626	215.9028778076172	-961.342224121094	553.7273559570314	83.92763519287111	-1058.778076171875	584.0785522460939	46.96720886230469	-1055.3310546875	525.6486206054689	44.80936431884766	-1053.209594726563	514.6546020507814	66.2368621826172	-832.3784179687502	621.4462890625001	38.59046173095704	-864.468444824219	
166	0.6875	464.0897827148439	1089.43798828125	-1369.353515625	572.7976074218751	1086.685302734375	-1361.128051757813	381.2380371093751	1042.706909179688	-1169.377807617188	621.4379882812501	1045.383422851563	-1143.738403320313	313.5952148437501	777.013122558594	-1293.187744140625	316.2455139160157	757.5338745117189	-1235.625732421875	316.3311767578126	693.3396606445314	-1280.725952148438	329.3233032226563	673.6364746093751	-1226.999877929688	380.5957946777344	372.9926757812501	-1568.474487304688	365.6802368164063	320.7569885253907	-1538.678344726563	384.2041015625001	321.6679687500001	-1597.089233398438	381.6226501464844	270.5931091308594	-1565.2109375	454.4327697753907	263.6562500000001	-1719.38916015625	494.7132873535157	241.0083312988282	-1736.346313476563	433.7410888671876	237.9951171875001	-1755.09912109375	497.5646057128907	193.0660247802735	-1683.130859375	403.0971069335939	191.9042663574219	-1722.132446289063	472.387420654297	156.907455444336	-1643.222290039063	472.887176513672	120.9500808715821	-1641.861938476563	419.3527832031251	118.99853515625	-1631.415649414063	397.9729003906251	138.5664672851563	-1723.361206054688	486.1401977539064	63.62489700317384	-1640.958618164063	427.470184326172	55.68541717529298	-1629.8154296875	381.1433715820313	69.12708282470705	-1693.64697265625	439.244354248047	25.87425231933594	-1598.378295898438	688.1406250000001	777.8371582031252	-1136.377807617188	683.9682617187501	790.397155761719	-1077.165893554688	675.7527465820314	710.0371093750001	-1085.264282226563	655.3184814453126	724.3339233398439	-1029.449096679688	626.8040161132814	272.3484191894532	-1036.331176757813	622.9598388671876	262.9221496582032	-983.5511474609377	618.7382812500001	221.7235412597657	-1012.454223632813	599.2298583984376	215.6508331298829	-958.9577636718752	553.5626220703126	84.04940795898439	-1058.447631835938	584.0200805664064	47.15390014648438	-1055.183959960938	525.5836791992189	44.90576171875001	-1053.073852539063	514.7316894531251	65.46181488037111	-831.9736328125002	621.6170654296876	38.3864974975586	-864.2316894531252	
167	0.6916666666666667	464.1038513183595	1089.48583984375	-1362.285034179688	572.9865112304689	1087.538696289063	-1353.95068359375	381.9788208007813	1042.78466796875	-1162.384643554688	621.9819946289064	1046.2021484375	-1136.343627929688	313.0497436523438	776.1129150390627	-1283.283325195313	315.3584289550782	757.4410400390626	-1225.424926757813	315.3309020996094	692.6463623046876	-1269.475708007813	327.9138793945313	673.5798950195314	-1215.6015625	378.9381103515626	375.5758361816407	-1556.334838867188	364.2597045898438	322.9429016113282	-1527.2060546875	382.4964294433594	324.8058166503907	-1585.7333984375	380.2774353027344	273.4634399414063	-1554.377807617188	452.7974243164064	270.1766662597657	-1707.245361328125	493.420379638672	248.4499664306641	-1724.902221679688	432.3091735839845	245.8557739257813	-1743.977783203125	496.0610351562501	198.015365600586	-1674.6630859375	401.8042297363282	198.2616577148438	-1712.975952148438	471.2317504882814	160.8238830566407	-1634.999755859375	471.711639404297	124.7851638793946	-1634.935668945313	418.1799621582032	122.4357604980469	-1624.5458984375	396.9424133300782	145.397689819336	-1715.785522460938	484.8180541992189	67.09830474853517	-1635.9130859375	426.4198303222657	57.8021583557129	-1625.82421875	380.6707763671876	74.53749084472658	-1688.565185546875	438.3635864257814	24.89474487304688	-1595.834228515625	688.7437744140626	779.2213134765627	-1128.66943359375	684.1804809570314	791.8336181640627	-1069.505004882813	676.2811889648439	711.3676757812501	-1077.589111328125	655.8233642578126	725.6328735351564	-1021.696594238281	626.7774658203126	273.1682434082032	-1033.400268554688	622.8220214843751	263.0811462402344	-980.784606933594	618.6586914062501	222.2167053222657	-1010.174682617188	599.0441894531251	215.5025482177735	-956.775573730469	553.6223144531251	84.28233337402345	-1058.316772460938	584.0077514648439	47.25164031982423	-1055.033325195313	525.5800781250001	45.05585479736329	-1052.933227539063	515.2470703125001	65.0498504638672	-831.5800781250002	622.0021972656251	38.12460708618165	-864.0379638671877	
